<svg width="244" height="39" viewBox="0 0 244 39" fill="none" xmlns="http://www.w3.org/2000/svg">
<path d="M0 38.563V16.0042H21.4765V22.9412H7.28668V38.563H0ZM0 0.32773H25.1472V7.31935H0V0.32773ZM29.8011 31.6261H55.2771V38.563H29.8011V31.6261ZM53.2499 16.0042V22.9412H29.8011V16.0042H53.2499ZM54.9484 0.32773V7.31935H29.8011V0.32773H54.9484ZM80.6747 38.563L73.0593 25.4538H67.745V38.563H60.4583V18.5168H74.4838C78.0997 18.5168 80.4008 16.1681 80.4008 12.8908C80.4008 9.61347 78.0997 7.31935 74.4838 7.31935H60.4583V0.32773H74.6481C83.1949 0.32773 87.9614 5.89913 87.9614 12.8908C87.9614 18.0252 85.4412 22.395 80.6747 24.3614L88.8927 38.563H80.6747ZM116.25 0.32773H124.359L110.497 38.563H103.046V38.5084L116.25 0.32773ZM97.2938 0.32773L103.485 18.2437L99.6496 29.2773L89.1853 0.32773H97.2938ZM127.925 31.6261H153.401V38.563H127.925V31.6261ZM151.374 16.0042V22.9412H127.925V16.0042H151.374ZM153.072 0.32773V7.31935H127.925V0.32773H153.072ZM181.155 21.7941V0.32773H188.442V39H187.949L165.87 17.1513V38.563H158.583V0H159.076L181.155 21.7941ZM193.059 0.32773H221V7.31935H193.059V0.32773ZM203.413 38.563V13H210.7V38.563H203.413Z" fill="white"/>
</svg>
